<?xml version="1.0" encoding="utf-8"?>
<svg viewBox="95.956 19.825 312.061 312.458" xmlns="http://www.w3.org/2000/svg">
  <defs>
    <linearGradient gradientUnits="userSpaceOnUse" x1="257.403" y1="43.866" x2="257.403" y2="332.548" id="gradient-0" gradientTransform="matrix(-0.836938, -0.68927, 0.600268, -0.728871, 365.730703, 507.660831)">
      <stop offset="0" style="stop-color: rgb(229, 156, 64);"/>
      <stop offset="1" style="stop-color: rgb(113, 211, 203);"/>
    </linearGradient>
  </defs>
  <path d="M 408.017 176.054 C 408.017 187.503 406.786 198.666 404.447 209.415 C 345.444 158.937 233.523 77.145 129.454 78.874 C 158.076 42.892 202.239 19.825 251.788 19.825 C 338.071 19.825 408.017 89.771 408.017 176.054 Z M 251.788 332.283 C 172.274 332.283 106.634 272.881 96.824 196.033 C 155.936 208.124 236.219 239.811 314.071 319.374 C 294.989 327.678 273.926 332.283 251.788 332.283 Z M 111.264 107.705 C 161.106 107.557 280.823 120.944 395.329 237.83 C 383.494 265.289 364.012 288.678 339.564 305.312 C 294.507 264.654 195.873 184.89 95.956 164.836 C 97.401 144.465 102.752 125.174 111.264 107.705 Z" style="stroke: rgb(0, 0, 0); fill: url(#gradient-0); paint-order: fill; stroke-opacity: 0; transform-origin: 251.987px 176.054px;"/>
</svg>